<?xml version="1.0" encoding="utf-8"?>
<!-- Generator: Adobe Illustrator 17.1.0, SVG Export Plug-In . SVG Version: 6.00 Build 0)  -->
<!DOCTYPE svg PUBLIC "-//W3C//DTD SVG 1.1//EN" "http://www.w3.org/Graphics/SVG/1.1/DTD/svg11.dtd">
<svg version="1.1" id="Слой_1" xmlns="http://www.w3.org/2000/svg" xmlns:xlink="http://www.w3.org/1999/xlink" x="0px" y="0px"
	 viewBox="0 0 623.6 1587.4" enable-background="new 0 0 623.6 1587.4" xml:space="preserve">
<path fill="#125FC5" d="M151.5,958.6c0.3,0,0.4-0.2,0.4-0.4v-22.7h80.5c0.3,0,0.4-0.2,0.4-0.4s-0.2-0.4-0.4-0.4h-22.7V854
	c0-0.3-0.2-0.4-0.4-0.4h-34.7c-0.3,0-0.4,0.2-0.4,0.4v80.5h-22.7c-0.3,0-0.4,0.2-0.4,0.4v22.7h-34.3c-0.3,0-0.4,0.2-0.4,0.4
	c0,0.3,0.2,0.4,0.4,0.4H151.5z M175.1,854.5h33.9v39.6h-11.1c-0.3,0-0.4,0.2-0.4,0.4c0,0.3,0.2,0.4,0.4,0.4h11.1v39.6h-33.9V854.5z
	 M301.9,853.6h-34.7c-0.3,0-0.4,0.2-0.4,0.4v46.2c0,0.3,0.2,0.4,0.4,0.4h34.7c0.3,0,0.4-0.2,0.4-0.4V854
	C302.3,853.8,302.1,853.6,301.9,853.6z M301.4,899.9h-33.9v-22.3h33.9V899.9z M301.4,876.7h-33.9v-22.3h33.9V876.7z M352.1,935.3
	l-3.6-1.3V680.6c0-0.3-0.2-0.4-0.4-0.4c-0.3,0-0.4,0.2-0.4,0.4v254.9c6.3-0.2,11.6,5,11.6,11.1c0,6.2-5,11.1-11.1,11.1h-46.2
	c-6.2,0-11.2-5-11.2-11.1c0-6.2,5-11.2,11.2-11.2c2.1,0,4.2,0.6,6,1.8c0.2,0.1,0.3,0.1,0.4,0s0.3-0.2,0.3-0.3
	c1.8-7.7,8.6-13,16.4-13c7.9,0,14.7,5.4,16.4,13.1c0,0.1,0.1,0.3,0.3,0.3c0.2,0.1,0.3,0.1,0.4,0c0.8-0.5,1.5-0.8,2.4-1.1l-6.1-7
	c-3.4-3.8-8.2-6.1-13.3-6.1c-6.4,0-12.4,3.5-15.5,9.1l-1.9,3.3l-3.7-0.7c-0.7-0.1-1.4-0.2-2-0.2c-6.6,0-12,5.3-12,12s5.3,12,12,12
	h46.1c6.6,0,12-5.3,12-12C360,941.5,356.8,937,352.1,935.3z M82.2,772.7c-0.3,0-0.4,0.2-0.4,0.4v46.2c0,0.3,0.2,0.4,0.4,0.4h34.7
	c0.3,0,0.4-0.2,0.4-0.4v-46.2c0-0.3-0.2-0.4-0.4-0.4H82.2L82.2,772.7z M116.4,818.9H82.5v-22.3h33.9V818.9z M116.4,795.8H82.5v-22.3
	h33.9V795.8z M209.4,738.9c0.3,0,0.4-0.2,0.4-0.4v-46.2c0-0.3-0.2-0.4-0.4-0.4h-34.7c-0.3,0-0.4,0.2-0.4,0.4v46.2
	c0,0.3,0.2,0.4,0.4,0.4H209.4z M175.1,692.5h33.9v22.3h-33.9V692.5z M175.1,715.7h33.9v22.3h-33.9V715.7z M267.1,958.6
	c0.3,0,0.4-0.2,0.4-0.4c0-0.1,0-0.2-0.1-0.3c-0.1-0.1-0.3-0.1-0.3-0.1h-92.5c-0.3,0-0.4,0.2-0.4,0.4c0,0.3,0.2,0.4,0.4,0.4H267.1z
	 M301.9,772.7h-34.7c-0.3,0-0.4,0.2-0.4,0.4v46.2c0,0.3,0.2,0.4,0.4,0.4h34.7c0.3,0,0.4-0.2,0.4-0.4v-46.2
	C302.3,772.8,302.1,772.7,301.9,772.7z M301.4,818.9h-33.9v-22.3h33.9V818.9z M301.4,795.8h-33.9v-22.3h33.9V795.8z M82.2,691.7
	c-0.3,0-0.4,0.2-0.4,0.4v46.2c0,0.3,0.2,0.4,0.4,0.4h34.7c0.3,0,0.4-0.2,0.4-0.4v-46.2c0-0.3-0.2-0.4-0.4-0.4H82.2z M116.4,738H82.5
	v-22.3h33.9V738z M116.4,714.8H82.5v-22.3h33.9V714.8z M82.2,853.6c-0.3,0-0.4,0.2-0.4,0.4v46.2c0,0.3,0.2,0.4,0.4,0.4h34.7
	c0.3,0,0.4-0.2,0.4-0.4V854c0-0.3-0.2-0.4-0.4-0.4H82.2z M116.4,899.9H82.5v-22.3h33.9V899.9z M116.4,876.7H82.5v-22.3h33.9V876.7z
	 M301.9,691.7h-34.7c-0.3,0-0.4,0.2-0.4,0.4v46.2c0,0.3,0.2,0.4,0.4,0.4h34.7c0.3,0,0.4-0.2,0.4-0.4v-46.2
	C302.3,691.9,302.1,691.7,301.9,691.7z M301.4,738h-33.9v-22.3h33.9V738z M301.4,714.8h-33.9v-22.3h33.9V714.8z M209.4,819.7
	c0.3,0,0.4-0.2,0.4-0.4v-46.2c0-0.3-0.2-0.4-0.4-0.4h-34.7c-0.3,0-0.4,0.2-0.4,0.4v46.2c0,0.3,0.2,0.4,0.4,0.4H209.4z M175.1,773.5
	h33.9v22.3h-33.9V773.5z M175.1,796.6h33.9v22.3h-33.9V796.6z M359.6,633.9H308h-5.8v-5.8l0,0h-5.9v-5.8h-17.6
	c-0.3,0-0.4,0.2-0.4,0.4v11.1H256v-11.2c0-0.3-0.2-0.4-0.4-0.4h-23.1c-0.3,0-0.4,0.2-0.4,0.4v11.1H105.7v-11.1
	c0-0.3-0.2-0.4-0.4-0.4H82.2c-0.3,0-0.4,0.2-0.4,0.4v11.1H24.3c-0.3,0-0.4,0.2-0.4,0.4s0.2,0.4,0.4,0.4h57.8c0.3,0,0.4-0.2,0.4-0.4
	v-11.1h22.3v11.2c0,0.3,0.2,0.4,0.4,0.4h127.2c0.3,0,0.4-0.2,0.4-0.4v-11.2h22.3v11.2c0,0.3,0.2,0.4,0.4,0.4h23.1
	c0.3,0,0.4-0.2,0.4-0.4v-11.2h16.4v5.3c0,0.3,0.2,0.4,0.4,0.4h5.3v5.3c0,0.3,0.2,0.4,0.4,0.4h57.4V657H35.9c-0.3,0-0.4,0.2-0.4,0.4
	V934l-3.6,1.3c-4.8,1.7-8,6.3-8,11.3c0,6.6,5.3,12,12,12h46.2c6.6,0,12-5.3,12-12s-5.3-12-12-12c-0.7,0-1.4,0.1-2,0.2l-3.7,0.7
	l-1.9-3.3c-3.1-5.6-9.1-9.1-15.5-9.1c-5.1,0-9.9,2.2-13.3,6.1l-6.1,7c0.8,0.3,1.6,0.7,2.3,1.1c0.2,0.1,0.3,0.1,0.4,0
	c0.2-0.1,0.3-0.2,0.3-0.3c1.8-7.7,8.6-13,16.4-13s14.7,5.4,16.4,13.1c0,0.1,0.1,0.3,0.3,0.3c0.1,0.1,0.3,0.1,0.4,0
	c1.8-1.1,3.8-1.7,5.8-1.7c6.1,0,11.3,5.1,11.3,11.1c0,6.2-5,11.1-11.2,11.1H35.9c-6.2,0-11.2-5-11.2-11.1c0-6.2,5-11.2,11.2-11.2
	c0.2,0,0.3,0,0.4,0V657.9h323.4c0.3,0,0.4-0.2,0.4-0.4v-23.1C360,634.1,359.9,633.9,359.6,633.9z M390.4,869.2v65.3h-3.5
	c-6.6,0-12,5.4-12,12c0,6.6,5.4,12,12,12h42.5c4.5,0,8.1-3.6,8.1-8.1c0-3.6-2.3-6.7-5.7-7.8l-1.9-0.7l-0.3-2
	c-1.4-7.6-7.9-13.1-15.7-13.1c-6.1,0-11.6,3.4-14.2,8.9l-1.8,3.6l-3.3-2.4c-0.4-0.3-1-0.7-1.5-0.9l-1.9-0.9v-65.8
	c0-0.3-0.2-0.4-0.4-0.4S390.4,869,390.4,869.2z M398.2,942.8c0.1,0.2,0.3,0.3,0.4,0.3c0.3-0.1,0.4-0.3,0.4-0.4
	c0-8.3,6.8-15.1,15.1-15.1c8.3,0,15.1,6.8,15.1,15.1c0,0.3,0.2,0.4,0.4,0.4c4.1,0,7.3,3.3,7.3,7.3c0,4.1-3.3,7.3-7.3,7.3h-42.5
	c-6.2,0-11.2-5-11.2-11.2s5-11.2,11.2-11.2C392,935.4,396.5,938.3,398.2,942.8z M599.6,764.4h-73.4c-0.3,0-0.4,0.2-0.4,0.4
	s0.2,0.4,0.4,0.4h73v95.2L487.8,749.1c-0.2-0.2-0.4-0.2-0.6,0L375.8,860.5v-95.2h46c0.3,0,0.4-0.2,0.4-0.4v-15.5
	c0-0.3-0.2-0.4-0.4-0.4h-7.3v-14.6h30.1V749h-7.3c-0.3,0-0.4,0.2-0.4,0.4v15.4c0,0.3,0.2,0.4,0.4,0.4h11.6c0.3,0,0.4-0.2,0.4-0.4
	s-0.2-0.4-0.4-0.4h-11.2v-14.7h7.3c0.3,0,0.4-0.2,0.4-0.4v-15.5c0-0.3-0.2-0.4-0.4-0.4h-30.9c-0.3,0-0.4,0.2-0.4,0.4v15.5
	c0,0.3,0.2,0.4,0.4,0.4h7.3v14.7h-46c-0.1,0-0.3,0-0.3,0.1c-0.1,0.1-0.2,0.2-0.2,0.3v96.6c0,0.2,0.1,0.3,0.3,0.4
	c0.2,0.1,0.3,0,0.4-0.1L487.4,750l111.8,111.8c0.2,0.2,0.3,0.2,0.5,0.1s0.3-0.3,0.3-0.4v-96.6c0-0.1,0-0.3-0.1-0.3
	C599.8,764.4,599.7,764.4,599.6,764.4z M467.7,958.1c0,0.3,0.2,0.4,0.4,0.4H588l0,0c3.2,0,6.2-1.3,8.5-3.6s3.6-5.3,3.6-8.5
	c0-6.6-5.4-12-12-12h-3.5v-65.3c0-0.3-0.2-0.4-0.4-0.4s-0.4,0.2-0.4,0.4V935l-1.9,0.9c-0.6,0.3-1.1,0.6-1.5,0.9l-3.3,2.4l-1.8-3.6
	c-2.7-5.5-8.1-8.9-14.2-8.9c-7.8,0-14.3,5.5-15.7,13.1l-0.3,2l-1.9,0.7c-3.4,1.1-5.7,4.2-5.7,7.8c0,0.8,0.2,1.8,0.5,2.7l1.7,4.6
	h-71.3C467.9,957.7,467.7,957.9,467.7,958.1z M538.1,950.3c0-4.1,3.3-7.3,7.3-7.3c0.3,0,0.4-0.2,0.4-0.4c0-8.3,6.8-15.1,15.1-15.1
	s15.1,6.8,15.1,15.1c0,0.2,0.2,0.3,0.3,0.4c0.3,0,0.4-0.1,0.5-0.3c1.7-4.5,6.2-7.5,11.2-7.5c6.2,0,11.2,5,11.2,11.2
	c0,6.2-5,11.2-11.2,11.2h-42.5C541.4,957.7,538.1,954.4,538.1,950.3z M487.4,795.4c-6.6,0-12,5.4-12,12s5.4,12,12,12
	c6.6,0,12-5.4,12-12S494,795.4,487.4,795.4z M487.4,818.6c-6.2,0-11.2-5-11.2-11.2c0-6.2,5-11.2,11.2-11.2s11.2,5,11.2,11.2
	C498.6,813.6,493.6,818.6,487.4,818.6z M521.8,911.7c0,0.3,0.2,0.4,0.4,0.4h46.4c0.3,0,0.4-0.2,0.4-0.4s-0.2-0.4-0.4-0.4h-7.3v-46
	c0-0.3-0.2-0.4-0.4-0.4H530c-0.3,0-0.4,0.2-0.4,0.4v46h-7.3C522,911.3,521.8,911.5,521.8,911.7z M530.4,865.7h30.1v22.4h-30.1V865.7
	z M530.4,888.9h30.1v22.4h-30.1V888.9z M522.7,942.6c0-0.3-0.2-0.4-0.4-0.4h-15.1v-76.9c0-0.3-0.2-0.4-0.4-0.4h-38.6
	c-0.3,0-0.4,0.2-0.4,0.4v76.9h-15.1c-0.3,0-0.4,0.2-0.4,0.4v15.5c0,0.3,0.2,0.4,0.4,0.4c0.3,0,0.4-0.2,0.4-0.4v-15.1h69.1
	C522.5,943.1,522.7,942.9,522.7,942.6z M506.3,903.6H499c-0.3,0-0.4,0.2-0.4,0.4s0.2,0.4,0.4,0.4h7.3v37.8h-37.8v-76.5h37.8V903.6z
	 M405.9,911.7c0,0.3,0.2,0.4,0.4,0.4h46.4c0.3,0,0.4-0.2,0.4-0.4s-0.2-0.4-0.4-0.4h-7.3v-46c0-0.3-0.2-0.4-0.4-0.4h-30.9
	c-0.3,0-0.4,0.2-0.4,0.4v46h-7.3C406,911.3,405.9,911.5,405.9,911.7z M414.4,865.7h30.1v22.4h-30.1V865.7z M414.4,888.9h30.1v22.4
	h-30.1V888.9z"/>
</svg>
