<?xml version="1.0" encoding="utf-8"?>
<!-- Generator: Adobe Illustrator 17.1.0, SVG Export Plug-In . SVG Version: 6.00 Build 0)  -->
<!DOCTYPE svg PUBLIC "-//W3C//DTD SVG 1.1//EN" "http://www.w3.org/Graphics/SVG/1.1/DTD/svg11.dtd">
<svg version="1.1" id="Слой_1" xmlns="http://www.w3.org/2000/svg" xmlns:xlink="http://www.w3.org/1999/xlink" x="0px" y="0px"
	 viewBox="0 0 623.6 1587.4" enable-background="new 0 0 623.6 1587.4" xml:space="preserve">
<path fill="#125FC5" d="M506.9,961.8c0.3,0,0.4-0.2,0.4-0.4s-0.2-0.4-0.4-0.4h-34.3v-22.7c0-0.3-0.2-0.4-0.4-0.4h-22.7v-80.5
	c0-0.3-0.2-0.4-0.4-0.4h-34.7c-0.3,0-0.4,0.2-0.4,0.4v80.5h-22.6c-0.3,0-0.4,0.2-0.4,0.4s0.2,0.4,0.4,0.4h80.5v22.7
	c0,0.3,0.2,0.4,0.4,0.4H506.9z M448.7,937.8h-33.9v-39.6h11.1c0.3,0,0.4-0.2,0.4-0.4c0-0.3-0.2-0.4-0.4-0.4h-11.1v-39.6h33.9V937.8z
	 M321.5,857.3v46.2c0,0.3,0.2,0.4,0.4,0.4h34.7c0.3,0,0.4-0.2,0.4-0.4v-46.2c0-0.3-0.2-0.4-0.4-0.4h-34.7
	C321.7,856.8,321.5,857.1,321.5,857.3z M322.4,880.9h33.9v22.3h-33.9V880.9z M322.4,857.7h33.9V880h-33.9V857.7z M271.7,938.6
	l3.6-1.3V683.8c0-0.3,0.2-0.4,0.4-0.4c0.3,0,0.4,0.2,0.4,0.4v254.9c-6.3-0.2-11.6,5-11.6,11.1c0,6.2,5,11.1,11.1,11.1h46.2
	c6.2,0,11.2-5,11.2-11.1c0-6.2-5-11.2-11.2-11.2c-2.1,0-4.2,0.6-6,1.8c-0.2,0.1-0.3,0.1-0.4,0s-0.3-0.2-0.3-0.3
	c-1.8-7.7-8.6-13-16.4-13c-7.9,0-14.7,5.4-16.4,13.1c0,0.1-0.1,0.3-0.3,0.3c-0.2,0.1-0.3,0.1-0.4,0c-0.8-0.5-1.5-0.8-2.4-1.1l6.1-7
	c3.4-3.8,8.2-6.1,13.3-6.1c6.4,0,12.4,3.5,15.5,9.1l1.9,3.3l3.7-0.7c0.7-0.1,1.4-0.2,2-0.2c6.6,0,12,5.3,12,12s-5.3,12-12,12h-46.2
	c-6.6,0-12-5.3-12-12C263.7,944.8,266.9,940.3,271.7,938.6z M506.9,776c-0.3,0-0.4,0.2-0.4,0.4v46.2c0,0.3,0.2,0.4,0.4,0.4h34.7
	c0.3,0,0.4-0.2,0.4-0.4v-46.2c0-0.3-0.2-0.4-0.4-0.4H506.9z M507.3,799.9h33.9v22.3h-33.9V799.9z M507.3,776.8h33.9v22.3h-33.9
	V776.8z M449.1,742.1c0.3,0,0.4-0.2,0.4-0.4v-46.2c0-0.3-0.2-0.4-0.4-0.4h-34.7c-0.3,0-0.4,0.2-0.4,0.4v46.2c0,0.3,0.2,0.4,0.4,0.4
	H449.1z M448.7,718.1h-33.9v-22.3h33.9V718.1z M448.7,741.2h-33.9V719h33.9V741.2z M356.6,961.8c-0.3,0-0.4-0.2-0.4-0.4
	c0-0.1,0-0.2,0.1-0.3c0.1-0.1,0.3-0.1,0.3-0.1h92.5c0.3,0,0.4,0.2,0.4,0.4s-0.2,0.4-0.4,0.4H356.6z M321.5,776.4v46.2
	c0,0.3,0.2,0.4,0.4,0.4h34.7c0.3,0,0.4-0.2,0.4-0.4v-46.2c0-0.3-0.2-0.4-0.4-0.4h-34.7C321.7,776,321.5,776.1,321.5,776.4z
	 M322.4,799.9h33.9v22.3h-33.9V799.9z M322.4,776.8h33.9v22.3h-33.9V776.8z M506.9,695c-0.3,0-0.4,0.2-0.4,0.4v46.2
	c0,0.3,0.2,0.4,0.4,0.4h34.7c0.3,0,0.4-0.2,0.4-0.4v-46.2c0-0.3-0.2-0.4-0.4-0.4H506.9z M507.3,719h33.9v22.3h-33.9V719z
	 M507.3,695.8h33.9v22.3h-33.9V695.8z M506.9,856.8c-0.3,0-0.4,0.2-0.4,0.4v46.2c0,0.3,0.2,0.4,0.4,0.4h34.7c0.3,0,0.4-0.2,0.4-0.4
	v-46.2c0-0.3-0.2-0.4-0.4-0.4H506.9z M507.3,880.9h33.9v22.3h-33.9V880.9z M507.3,857.7h33.9V880h-33.9V857.7z M321.5,695.4v46.2
	c0,0.3,0.2,0.4,0.4,0.4h34.7c0.3,0,0.4-0.2,0.4-0.4v-46.2c0-0.3-0.2-0.4-0.4-0.4h-34.7C321.7,695,321.5,695.2,321.5,695.4z
	 M322.4,719h33.9v22.3h-33.9V719z M322.4,695.8h33.9v22.3h-33.9V695.8z M449.1,823c0.3,0,0.4-0.2,0.4-0.4v-46.2
	c0-0.3-0.2-0.4-0.4-0.4h-34.7c-0.3,0-0.4,0.2-0.4,0.4v46.2c0,0.3,0.2,0.4,0.4,0.4H449.1z M448.7,799.1h-33.9v-22.3h33.9V799.1z
	 M448.7,822.2h-33.9v-22.3h33.9V822.2z M264.1,637.1h51.6h5.8v-5.8l0,0h5.9v-5.8H345c0.3,0,0.4,0.2,0.4,0.4v11.1h22.3V626
	c0-0.3,0.2-0.4,0.4-0.4h23.2c0.3,0,0.4,0.2,0.4,0.4v11.1h126.4V626c0-0.3,0.2-0.4,0.4-0.4h23.1c0.3,0,0.4,0.2,0.4,0.4v11.1h57.4
	c0.3,0,0.4,0.2,0.4,0.4s-0.2,0.4-0.4,0.4h-57.8c-0.3,0-0.4-0.2-0.4-0.4v-11.1h-22.3v11.2c0,0.3-0.2,0.4-0.4,0.4H391.3
	c-0.3,0-0.4-0.2-0.4-0.4v-11.2h-22.3v11.2c0,0.3-0.2,0.4-0.4,0.4h-23.1c-0.3,0-0.4-0.2-0.4-0.4v-11.2h-16.5v5.3
	c0,0.3-0.2,0.4-0.4,0.4h-5.3v5.3c0,0.3-0.2,0.4-0.4,0.4h-57.4v22.3h323.4c0.3,0,0.4,0.2,0.4,0.4v276.6l3.6,1.3c4.8,1.7,8,6.3,8,11.3
	c0,6.6-5.3,12-12,12h-46.2c-6.6,0-12-5.3-12-12s5.3-12,12-12c0.7,0,1.4,0.1,2,0.2l3.7,0.7l1.9-3.3c3.1-5.6,9.1-9.1,15.5-9.1
	c5.1,0,9.9,2.2,13.3,6.1l6.1,7c-0.8,0.3-1.6,0.7-2.3,1.1c-0.2,0.1-0.3,0.1-0.4,0c-0.2-0.1-0.3-0.2-0.3-0.3c-1.8-7.7-8.6-13-16.4-13
	s-14.7,5.4-16.4,13.1c0,0.1-0.1,0.3-0.3,0.3c-0.1,0.1-0.3,0.1-0.4,0c-1.8-1.1-3.8-1.7-5.8-1.7c-6.1,0-11.3,5.1-11.3,11.1
	c0,6.2,5,11.1,11.2,11.1h46.2c6.2,0,11.2-5,11.2-11.1c0-6.2-5-11.2-11.2-11.2c-0.2,0-0.3,0-0.4,0V661.1H264.1
	c-0.3,0-0.4-0.2-0.4-0.4v-23.1C263.7,637.4,263.8,637.1,264.1,637.1z M232.9,872.1c-0.3,0-0.4,0.2-0.4,0.4v65.8l-1.9,0.9
	c-0.6,0.3-1.1,0.6-1.5,0.9l-3.3,2.4l-1.8-3.6c-2.7-5.5-8.1-8.9-14.2-8.9c-7.8,0-14.3,5.5-15.7,13.1l-0.3,2l-1.9,0.7
	c-3.4,1.1-5.7,4.2-5.7,7.8c0,4.5,3.6,8.1,8.1,8.1h42.5c6.6,0,12-5.4,12-12c0-6.6-5.4-12-12-12h-3.5v-65.3
	C233.3,872.3,233.2,872.1,232.9,872.1z M236.8,938.6c6.2,0,11.2,5,11.2,11.2s-5,11.2-11.2,11.2h-42.5c-4.1,0-7.3-3.3-7.3-7.3
	c0-4.1,3.3-7.3,7.3-7.3c0.3,0,0.4-0.2,0.4-0.4c0-8.3,6.8-15.1,15.1-15.1s15.1,6.8,15.1,15.1c0,0.2,0.2,0.3,0.4,0.4
	c0.2,0,0.3-0.1,0.4-0.3C227.2,941.6,231.7,938.6,236.8,938.6z M24.2,767.7h73.4c0.3,0,0.4,0.2,0.4,0.4s-0.2,0.4-0.4,0.4h-73v95.2
	L136,752.4c0.2-0.2,0.4-0.2,0.6,0L248,863.8v-95.2h-46c-0.3,0-0.4-0.2-0.4-0.4v-15.5c0-0.3,0.2-0.4,0.4-0.4h7.3v-14.7h-30.1v14.7
	h7.3c0.3,0,0.4,0.2,0.4,0.4v15.5c0,0.3-0.2,0.4-0.4,0.4h-11.6c-0.3,0-0.4-0.2-0.4-0.4s0.2-0.4,0.4-0.4h11.2v-14.7h-7.3
	c-0.3,0-0.4-0.2-0.4-0.4v-15.5c0-0.3,0.2-0.4,0.4-0.4h30.9c0.3,0,0.4,0.2,0.4,0.4v15.5c0,0.3-0.2,0.4-0.4,0.4h-7.3v14.7h46
	c0.1,0,0.3,0,0.3,0.1c0.1,0.1,0.2,0.2,0.2,0.3v96.6c0,0.2-0.1,0.3-0.3,0.4c-0.2,0.1-0.3,0-0.4-0.1L136.4,753.3L24.6,865.1
	c-0.2,0.2-0.3,0.2-0.5,0.1s-0.3-0.3-0.3-0.4v-96.6c0-0.1,0-0.3,0.1-0.3C24,767.7,24.1,767.7,24.2,767.7z M155.6,960.9H84.3l1.7-4.6
	c0.3-0.9,0.5-1.9,0.5-2.7c0-3.6-2.3-6.7-5.7-7.8l-1.9-0.7l-0.3-2c-1.4-7.6-7.9-13.1-15.7-13.1c-6.1,0-11.6,3.4-14.2,8.9l-1.8,3.6
	l-3.3-2.4c-0.4-0.3-0.9-0.7-1.5-0.9l-1.9-0.9v-65.8c0-0.3-0.2-0.4-0.4-0.4c-0.3,0-0.4,0.2-0.4,0.4v65.3h-3.5c-6.6,0-12,5.4-12,12
	c0,3.2,1.3,6.2,3.6,8.5s5.3,3.6,8.5,3.6l0,0h119.8c0.3,0,0.4-0.2,0.4-0.4C156,961.1,155.8,960.9,155.6,960.9z M78.3,960.9H35.8
	c-6.2,0-11.2-5-11.2-11.2s5-11.2,11.2-11.2c5,0,9.6,3,11.2,7.5c0.1,0.2,0.3,0.3,0.5,0.3c0.2,0,0.3-0.2,0.3-0.4
	c0-8.3,6.8-15.1,15.1-15.1s15,6.9,15,15.2c0,0.3,0.2,0.4,0.4,0.4c4.1,0,7.3,3.3,7.3,7.3C85.6,957.7,82.3,960.9,78.3,960.9z
	 M124.2,810.7c0,6.6,5.4,12,12,12c6.6,0,12-5.4,12-12s-5.4-12-12-12S124.2,804,124.2,810.7z M125.1,810.7c0-6.2,5-11.2,11.2-11.2
	c6.2,0,11.2,5,11.2,11.2c0,6.2-5,11.2-11.2,11.2C130.2,821.8,125.1,816.8,125.1,810.7z M101.6,914.6h-7.3v-46c0-0.3-0.2-0.4-0.4-0.4
	h-31c-0.3,0-0.4,0.2-0.4,0.4v46h-7.3c-0.3,0-0.4,0.2-0.4,0.4s0.2,0.4,0.4,0.4h46.4c0.3,0,0.4-0.2,0.4-0.4
	C102,914.8,101.7,914.6,101.6,914.6z M93.3,891.4H63.3V869h30.1V891.4z M93.3,914.6H63.3v-22.4h30.1V914.6z M101.6,946.4h69.1v15
	c0,0.3,0.2,0.4,0.4,0.4s0.4-0.2,0.4-0.4v-15.5c0-0.3-0.2-0.4-0.4-0.4H156v-76.9c0-0.3-0.2-0.4-0.4-0.4H117c-0.3,0-0.4,0.2-0.4,0.4
	v76.9h-15.1c-0.3,0-0.4,0.2-0.4,0.4C101.1,946.1,101.3,946.4,101.6,946.4z M117.4,869h37.8v76.5h-37.8v-37.8h7.3
	c0.3,0,0.4-0.2,0.4-0.4s-0.2-0.4-0.4-0.4h-7.3V869z M217.5,914.6h-7.3v-46c0-0.3-0.2-0.4-0.4-0.4h-30.9c-0.3,0-0.4,0.2-0.4,0.4v46
	h-7.4c-0.3,0-0.4,0.2-0.4,0.4s0.2,0.4,0.4,0.4h46.4c0.3,0,0.4-0.2,0.4-0.4S217.7,914.6,217.5,914.6z M209.3,891.4h-30.1V869h30.1
	V891.4z M209.3,914.6h-30.1v-22.4h30.1V914.6z"/>
</svg>
