<?xml version="1.0" encoding="utf-8"?>
<!-- Generator: Adobe Illustrator 17.1.0, SVG Export Plug-In . SVG Version: 6.00 Build 0)  -->
<!DOCTYPE svg PUBLIC "-//W3C//DTD SVG 1.1//EN" "http://www.w3.org/Graphics/SVG/1.1/DTD/svg11.dtd">
<svg version="1.1" id="Слой_1" xmlns="http://www.w3.org/2000/svg" xmlns:xlink="http://www.w3.org/1999/xlink" x="0px" y="0px"
	 viewBox="0 0 122.3 119.4" enable-background="new 0 0 122.3 119.4" xml:space="preserve">
<g>
	<path fill="#125FC5" d="M92.5,27.7H29.8c-0.4,0-0.6,0.3-0.6,0.6v62.7c0,0.4,0.3,0.6,0.6,0.6h62.7c0.4,0,0.6-0.3,0.6-0.6V28.3
		C93.2,28,92.9,27.7,92.5,27.7L92.5,27.7z M91.9,90.4H30.4V29h61.5V90.4z M91.9,90.4"/>
	<path fill="#125FC5" d="M65,72c-0.4,0-0.6,0.3-0.6,0.6v2.3c0,0.4,0.3,0.6,0.6,0.6c0.4,0,0.6-0.3,0.6-0.6v-2.3
		C65.6,72.3,65.3,72,65,72L65,72z M65,72"/>
	<path fill="#125FC5" d="M48.8,62.5h6.7v21.1c0,0.4,0.3,0.6,0.6,0.6H65c0.4,0,0.6-0.3,0.6-0.6v-4.1c0-0.4-0.3-0.6-0.6-0.6
		c-0.4,0-0.6,0.3-0.6,0.6V83h-7.6V61.9c0-0.4-0.3-0.6-0.6-0.6h-6.7v-7.6h6.7c0.4,0,0.6-0.3,0.6-0.6v-7.5c0-5.1,4.1-9.2,9.2-9.2h7
		v6.7h-4.8c-2.1,0-3.8,1.7-3.8,3.8V53c0,0.4,0.3,0.6,0.6,0.6h7.7l-1,7.6H65c-0.4,0-0.6,0.3-0.6,0.6v6.2c0,0.4,0.3,0.6,0.6,0.6
		c0.4,0,0.6-0.3,0.6-0.6v-5.6h6.7c0.3,0,0.6-0.2,0.6-0.6l1.2-8.9c0-0.2,0-0.4-0.2-0.5c-0.1-0.1-0.3-0.2-0.5-0.2h-7.8v-5.5
		c0-1.4,1.1-2.5,2.5-2.5h5.5c0.4,0,0.6-0.3,0.6-0.6v-8c0-0.4-0.3-0.6-0.6-0.6h-7.7c-5.8,0-10.5,4.7-10.5,10.5v6.8h-6.7
		c-0.4,0-0.6,0.3-0.6,0.6v8.9C48.1,62.2,48.4,62.5,48.8,62.5L48.8,62.5z M48.8,62.5"/>
	<path fill="#125FC5" d="M35.9,41c0.4,0,0.6-0.3,0.6-0.6v-5.5c0-0.4-0.3-0.6-0.6-0.6c-0.4,0-0.6,0.3-0.6,0.6v5.5
		C35.2,40.7,35.5,41,35.9,41L35.9,41z M35.9,41"/>
	<path fill="#125FC5" d="M35.9,85.6c0.4,0,0.6-0.3,0.6-0.6V46.7c0-0.4-0.3-0.6-0.6-0.6c-0.4,0-0.6,0.3-0.6,0.6V85
		C35.2,85.3,35.5,85.6,35.9,85.6L35.9,85.6z M35.9,85.6"/>
</g>
</svg>
