<?xml version="1.0" encoding="utf-8"?>
<!-- Generator: Adobe Illustrator 17.1.0, SVG Export Plug-In . SVG Version: 6.00 Build 0)  -->
<!DOCTYPE svg PUBLIC "-//W3C//DTD SVG 1.1//EN" "http://www.w3.org/Graphics/SVG/1.1/DTD/svg11.dtd">
<svg version="1.1" id="Слой_1" xmlns="http://www.w3.org/2000/svg" xmlns:xlink="http://www.w3.org/1999/xlink" x="0px" y="0px"
	 viewBox="0 0 330 342.7" enable-background="new 0 0 330 342.7" xml:space="preserve">
<g>
	<g>
		<g>
			<polygon fill="#125FC5" points="233.4,75 283,75 307.4,32.8 191.2,32.8 			"/>
			<polygon fill="#125FC5" points="275.6,117.3 295.8,137.4 307.4,117.3 			"/>
			<polygon fill="#125FC5" points="138.9,32.8 82.4,32.8 58,75 96.6,75 			"/>
			<polygon fill="#125FC5" points="51.5,222.5 22.6,272.4 67.7,272.4 43.6,314.5 47.3,314.6 95.8,314.6 113.3,284.3 			"/>
			<polygon fill="#125FC5" points="186.4,314.6 193.5,314.6 203,298 			"/>
		</g>
		<g>
			<path fill="#125FC5" d="M191.2,32.8l-5.6-5.6c-11.4-11.4-29.8-11.4-41.2,0l-5.6,5.6H191.2z"/>
			<polygon fill="#F4BB2E" points="213.8,194.8 258.6,117.3 275.6,117.3 233.4,75 185.5,75 161.1,117.3 209.8,117.3 165,194.8 			
				"/>
			<path fill="#125FC5" d="M144.9,314.6l-0.2-0.1l44.7-77.4h-48.9l-27.3,47.3l31.1,31.1c11.4,11.4,29.8,11.4,41.2,0l0.8-0.8H144.9z"
				/>
			<path fill="#125FC5" d="M136.6,75H96.6l-75.7,75.7c-11.4,11.4-11.4,29.8,0,41.2l30.5,30.5L136.6,75z"/>
			<path fill="#125FC5" d="M309.1,150.7l-13.4-13.4L203,298l106.1-106.1C320.5,180.6,320.5,162.1,309.1,150.7z"/>
		</g>
	</g>
</g>
</svg>
