<?xml version="1.0" encoding="utf-8"?>
<!-- Generator: Adobe Illustrator 17.1.0, SVG Export Plug-In . SVG Version: 6.00 Build 0)  -->
<!DOCTYPE svg PUBLIC "-//W3C//DTD SVG 1.1//EN" "http://www.w3.org/Graphics/SVG/1.1/DTD/svg11.dtd">
<svg version="1.1" id="Слой_1" xmlns="http://www.w3.org/2000/svg" xmlns:xlink="http://www.w3.org/1999/xlink" x="0px" y="0px"
	 viewBox="0 0 122.3 119.4" enable-background="new 0 0 122.3 119.4" xml:space="preserve">
<g>
	<path fill="#125FC5" d="M92.5,27.7H29.8c-0.4,0-0.6,0.3-0.6,0.6v62.7c0,0.4,0.3,0.6,0.6,0.6h62.7c0.4,0,0.6-0.3,0.6-0.6V28.3
		C93.2,28,92.9,27.7,92.5,27.7L92.5,27.7z M91.9,90.4H30.4V29h61.5V90.4z M91.9,90.4"/>
	<path fill="#125FC5" d="M36.3,53.2c2.9,5.8,5.4,10,8.3,13.6c2.3,3,4.8,5.1,7.6,6.6c3.2,1.7,6.9,2.4,11.5,2.2
		c1.6-0.1,2.7-1.1,2.8-2.6c0-0.3,0.4-2.8,0.7-3.8c0.1-0.2,0.3-0.6,0.6-0.6c0.3-0.1,0.6,0,1,0.3c0.4,0.3,0.7,0.6,1.1,1
		c0.4,0.5,0.9,0.9,1.3,1.4c0.8,0.8,1.6,1.7,2.4,2.5c1.3,1.2,2.9,1.9,4.7,1.9c0,0,0.2,0,0.5,0c1.5,0,3.3,0.1,4.7,0.1
		c1.2,0,2.1,0,2.6-0.1c1.2-0.2,2-0.7,2.4-1.6c0.4-0.9,0.3-1.9-0.4-2.9c-0.8-1.3-1.8-2.6-3-3.9c-0.9-1-1.8-1.9-2.7-2.8
		c-0.6-0.6-1.3-1.2-1.9-1.9c-0.7-0.8-0.8-1.1-0.2-2.1c0.2-0.4,0.4-0.6,0.6-0.9c0.2-0.3,0.1-0.7-0.1-0.9c-0.3-0.2-0.7-0.1-0.9,0.1
		c-0.2,0.3-0.4,0.6-0.6,1c-0.8,1.4-0.7,2.4,0.4,3.6c0.6,0.6,1.3,1.3,1.9,1.9c0.9,0.9,1.8,1.8,2.7,2.7c1.1,1.2,2,2.4,2.8,3.7
		c0.4,0.6,0.5,1.3,0.3,1.7c-0.2,0.4-0.7,0.8-1.4,0.9c-0.7,0.1-3.1,0.1-7.1,0c-0.3,0-0.4,0-0.5,0c-1.5,0-2.8-0.5-3.8-1.5
		c-0.8-0.8-1.6-1.6-2.4-2.5c-0.4-0.5-0.9-1-1.3-1.4c-0.4-0.5-0.9-0.8-1.3-1.2c-0.7-0.5-1.4-0.7-2.1-0.5c-0.4,0.1-1,0.5-1.4,1.4
		c-0.5,1.1-0.8,4-0.8,4.1c-0.1,0.9-0.6,1.4-1.6,1.5c-4.4,0.2-7.8-0.4-10.8-2c-2.6-1.4-5-3.5-7.2-6.3c-2.8-3.6-5.3-7.7-8.1-13.4
		c-0.1-0.3-2.4-5-2.5-5.5c-0.1-0.4-0.1-0.9,0.2-1c0.8-0.1,7.7,0,8.2,0c1.1,0.1,1.7,0.5,2.1,1.5c1.7,4.1,3.6,7.5,6,10.5
		c0.4,0.4,0.8,0.9,1.3,1.2c0.5,0.3,1,0.4,1.5,0.3c0.5-0.1,0.8-0.5,1-1.1c0.3-0.9,0.6-2.5,0.6-3.4c0-2.1,0-3.5-0.1-5.7
		c-0.1-2-1.1-3.1-3-3.5c0,0,0-0.1,0.1-0.1c0.6-0.8,1.4-1,2.8-1c1.5-0.1,3-0.1,4.5,0c0.5,0,1,0,1.6,0c0.9,0,1.6,0.1,2.3,0.2
		c0.7,0.2,1.2,0.6,1.3,1.5c0.1,0.5,0.1,1,0.1,1.5c0,0.9-0.1,1.9-0.1,2.9c0,1.3-0.1,2.7-0.1,4.1c0,1.1,0.1,2,0.3,2.9
		c0.3,1.2,0.9,1.5,1.3,1.6c0.3,0.1,1,0.1,1.8-0.7c1-1,1.9-2.2,3-3.8c1.5-2.1,2.7-4.6,4-7.7c0.5-1.1,0.6-1.3,1.9-1.3
		c3.2,0,5.9,0,8.3,0c0.5,0,0.9,0.1,1.3,0.2c0.3,0.1,0.6,0.3,0.5,0.9c-0.1,0.3,0.1,0.7,0.5,0.8c0.3,0.1,0.7-0.1,0.8-0.5
		c0.3-1.1-0.3-2.1-1.3-2.4c-0.5-0.2-1-0.2-1.7-0.2c-2.5,0-5.1,0-8.4,0c-1.7,0-2.4,0.5-3,2.1c-1.2,3.1-2.4,5.5-3.9,7.5
		c-1.1,1.6-2,2.7-2.9,3.6c-0.3,0.3-0.5,0.3-0.5,0.3c-0.1,0-0.3-0.2-0.4-0.7c-0.2-0.8-0.2-1.6-0.2-2.6c0-1.4,0.1-2.7,0.1-4.1
		c0-0.9,0.1-1.9,0.1-2.9c0-0.6,0-1.1-0.1-1.7c-0.2-1.4-1-2.3-2.3-2.5c-0.8-0.2-1.6-0.3-2.6-0.3c-0.5,0-1,0-1.6,0c-1.5,0-3-0.1-4.6,0
		c-1.3,0.1-2.7,0.2-3.7,1.5c-0.4,0.5-0.5,1-0.3,1.4c0.1,0.2,0.3,0.6,1,0.7c1.6,0.3,2,1.1,2,2.3c0.1,2.1,0.2,3.5,0.1,5.6
		c0,0.7-0.3,2.2-0.5,3c-0.1,0.2-0.1,0.3-0.2,0.3c-0.1,0-0.2,0-0.4-0.1c-0.4-0.3-0.8-0.6-1.1-1c-2.3-2.9-4.2-6.2-5.8-10.2
		C46,45.7,45,45,43.4,44.9c-0.1,0-8-0.2-8.7,0c-0.9,0.4-1.4,1.4-1,2.6C33.8,47.9,36.3,53.1,36.3,53.2L36.3,53.2z M36.3,53.2"/>
	<path fill="#125FC5" d="M84.9,51.6c-0.4,0.7-0.9,1.4-1.5,2.2c-0.2,0.3-0.1,0.7,0.2,0.9c0.1,0.1,0.2,0.1,0.4,0.1
		c0.2,0,0.4-0.1,0.5-0.3c0.6-0.8,1.1-1.6,1.5-2.3c0.2-0.3,0.1-0.7-0.2-0.9C85.5,51.2,85.1,51.3,84.9,51.6L84.9,51.6z M84.9,51.6"/>
	<path fill="#125FC5" d="M86.3,84.4h-5.5c-0.4,0-0.6,0.3-0.6,0.6c0,0.4,0.3,0.6,0.6,0.6h5.5c0.4,0,0.6-0.3,0.6-0.6
		C86.9,84.7,86.6,84.4,86.3,84.4L86.3,84.4z M86.3,84.4"/>
	<path fill="#125FC5" d="M74.4,84.4H36.2c-0.4,0-0.6,0.3-0.6,0.6c0,0.4,0.3,0.6,0.6,0.6h38.2c0.4,0,0.6-0.3,0.6-0.6
		C75.1,84.7,74.8,84.4,74.4,84.4L74.4,84.4z M74.4,84.4"/>
</g>
</svg>
