<?xml version="1.0" encoding="utf-8"?>
<!-- Generator: Adobe Illustrator 17.1.0, SVG Export Plug-In . SVG Version: 6.00 Build 0)  -->
<!DOCTYPE svg PUBLIC "-//W3C//DTD SVG 1.1//EN" "http://www.w3.org/Graphics/SVG/1.1/DTD/svg11.dtd">
<svg version="1.1" id="Слой_1" xmlns="http://www.w3.org/2000/svg" xmlns:xlink="http://www.w3.org/1999/xlink" x="0px" y="0px"
	 viewBox="0 0 122.3 119.4" enable-background="new 0 0 122.3 119.4" xml:space="preserve">
<g>
	<path fill="#125FC5" d="M92.5,27.7H29.8c-0.4,0-0.6,0.3-0.6,0.6v62.7c0,0.4,0.3,0.6,0.6,0.6h62.7c0.4,0,0.6-0.3,0.6-0.6V28.3
		C93.2,28,92.9,27.7,92.5,27.7L92.5,27.7z M91.9,90.4H30.4V29h61.5V90.4z M91.9,90.4"/>
	<path fill="#125FC5" d="M38.4,85c1.5,1.3,3.4,2.1,5.5,2.1c5.7,0.1,11.5,0.2,17.2,0.2c5.8,0,11.5-0.1,17.2-0.2c2.1,0,4-0.8,5.5-2.1
		c1.5-1.3,2.3-3.1,2.3-5v-7.2c0-0.4-0.3-0.6-0.6-0.6s-0.6,0.3-0.6,0.6v7.2c0,3.2-2.9,5.8-6.5,5.9c-11.4,0.2-23,0.2-34.4,0
		c-3.6-0.1-6.5-2.7-6.5-5.9V64c0-3.2,2.9-5.8,6.5-5.9c11.4-0.2,23-0.2,34.4,0c2.1,0,4,0.9,5.2,2.4c0.9,1,1.3,2.2,1.3,3.5
		c0,0.4,0.3,0.6,0.6,0.6s0.6-0.3,0.6-0.6c0-1.6-0.6-3.1-1.6-4.3c-1.5-1.8-3.7-2.8-6.2-2.9c-11.4-0.2-23-0.2-34.5,0
		c-2.1,0-4,0.8-5.5,2.1c-1.5,1.3-2.3,3.1-2.3,5v16C36.1,81.8,36.9,83.6,38.4,85L38.4,85z M38.4,85"/>
	<path fill="#125FC5" d="M44.9,83.2H48c0.4,0,0.6-0.3,0.6-0.6V65.1h2.7c0.4,0,0.6-0.3,0.6-0.6v-3c0-0.4-0.3-0.6-0.6-0.6h-9.8
		c-0.4,0-0.6,0.3-0.6,0.6v3c0,0.4,0.3,0.6,0.6,0.6h2.7v17.4C44.2,82.9,44.5,83.2,44.9,83.2L44.9,83.2z M42.2,63.8v-1.7h8.5v1.7H48
		c-0.4,0-0.6,0.3-0.6,0.6v17.4h-1.9V64.5c0-0.4-0.3-0.6-0.6-0.6H42.2z M42.2,63.8"/>
	<path fill="#125FC5" d="M56.7,83.2h2.8c0.4,0,0.6-0.3,0.6-0.6V66.9c0-0.2-0.1-0.3-0.2-0.5c-0.1-0.1-0.3-0.2-0.5-0.2h0l-2.8,0
		c-0.4,0-0.6,0.3-0.6,0.6v10.6c-0.3,0.4-0.6,0.6-1,0.8c-0.1,0.1-0.1,0-0.1-0.1c0-0.1,0-0.3,0-0.5c0-2.9,0-10.7,0-10.8
		c0-0.3-0.3-0.6-0.6-0.6h-2.8c-0.4,0-0.6,0.3-0.6,0.6v0.1c0,2.6,0,11.2,0,13c0,0.5,0,1.2,0.3,1.9c0.3,0.8,1,1.3,1.8,1.4
		c0.2,0,0.4,0,0.5,0c0.4,0,0.7-0.1,1.1-0.2c0.5-0.2,1.1-0.5,1.5-0.9v0.2C56,82.9,56.3,83.2,56.7,83.2L56.7,83.2z M56,80.6
		c-0.6,0.7-1.2,1.2-1.9,1.4c-0.4,0.1-0.7,0.2-1,0.1c-0.4-0.1-0.6-0.3-0.8-0.7c-0.2-0.4-0.2-0.8-0.2-1.4c0-1.7,0-9.4,0-12.5h1.6
		c0,1.8,0,6.9,0,10.2c0,0.2,0,0.5,0.1,0.8c0.1,0.4,0.3,0.8,0.7,1c0.3,0.2,0.8,0.2,1.2,0.1c0.6-0.2,1.2-0.6,1.6-1.3
		c0.2-0.2,0.2-0.5,0.2-0.7v-10l1.6,0v14.3h-1.6v-1.1c0-0.3-0.2-0.5-0.4-0.6c-0.2-0.1-0.5,0-0.7,0.2l-0.1,0.1
		C56,80.5,56,80.6,56,80.6L56,80.6z M56,80.6"/>
	<path fill="#125FC5" d="M65.2,60.8h-2.8c-0.4,0-0.6,0.3-0.6,0.6v21.1c0,0.4,0.3,0.6,0.6,0.6h2.8c0.3,0,0.5-0.2,0.6-0.4
		c0.6,0.4,1.3,0.6,2.1,0.6c0,0,0,0,0,0c1.5,0,2.5-0.8,3-2.1c0,0,0,0,0,0c0.2-0.5,0.3-1.1,0.3-1.8c0-3.2,0-6.1,0-8.8
		c0-1.1-0.2-1.9-0.5-2.6c-0.7-1.4-2.1-2.1-3.7-1.7c-0.4,0.1-0.8,0.3-1.1,0.5v-5.3C65.8,61.1,65.5,60.8,65.2,60.8L65.2,60.8z
		 M65.9,68.3c0.4-0.4,0.8-0.7,1.3-0.8c0.8-0.2,1.7,0,2.2,1c0.3,0.6,0.4,1.2,0.4,2.1c0,2.8,0,5.7,0,8.8c0,0.6-0.1,1-0.2,1.4
		c-0.3,0.9-0.9,1.3-1.8,1.3c-0.8,0-1.4-0.3-2-0.9l-0.3-0.3c-0.1-0.1-0.3-0.2-0.5-0.2c-0.1,0-0.2,0-0.2,0c-0.2,0.1-0.4,0.3-0.4,0.6
		v0.5H63V62.1h1.6v6.3c0,0.3,0.2,0.6,0.5,0.6c0.3,0.1,0.6-0.1,0.7-0.3C65.8,68.6,65.9,68.4,65.9,68.3L65.9,68.3z M65.9,68.3"/>
	<path fill="#125FC5" d="M81,75.7c0.3,0,0.6-0.3,0.6-0.6c0-0.1,0-2.7,0-4c0-0.6-0.1-1.2-0.2-1.7c-0.3-1.6-1.3-2.8-2.8-3.3
		c-0.4-0.1-0.9-0.2-1.4-0.3c-1.7-0.1-3,0.4-4,1.6c-0.9,1-1.3,2.2-1.3,3.7l0,1.1c0,1.9,0,3.9,0,5.9c0,0.7,0.1,1.3,0.2,1.9
		c0.4,1.5,1.2,2.6,2.5,3.2c0.6,0.3,1.3,0.4,2,0.4c0.3,0,0.7,0,1.1-0.1c1.8-0.3,2.9-1.2,3.5-2.9c0.4-1.2,0.4-3.4,0.4-3.7
		c0-0.3-0.3-0.6-0.6-0.6h-2.9c-0.4,0-0.6,0.3-0.6,0.6v2c0,0.3-0.3,0.6-0.6,0.6c-0.3,0-0.6-0.3-0.6-0.6v-3.3H81z M76.9,80.9
		c1,0,1.9-0.9,1.9-1.9v-1.4h1.6c0,0.8-0.1,2-0.3,2.6l0,0c-0.4,1.2-1.2,1.8-2.5,2c-1,0.1-1.7,0.1-2.3-0.2c-0.9-0.4-1.5-1.2-1.8-2.3
		c-0.1-0.5-0.2-1.1-0.2-1.6c0-2,0-3.9,0-5.9l0-1.1c0-1.2,0.3-2.1,1-2.8c0.7-0.8,1.6-1.2,2.7-1.2c0.1,0,0.2,0,0.3,0
		c0.4,0,0.8,0.1,1.1,0.2c1,0.3,1.7,1.1,1.9,2.3c0.1,0.4,0.1,0.9,0.1,1.5c0,0.8,0,2.4,0,3.3h-4.8c-0.4,0-0.6,0.3-0.6,0.6V79
		C75,80,75.8,80.9,76.9,80.9L76.9,80.9z M76.9,80.9"/>
	<path fill="#125FC5" d="M75.6,73.3h2.5c0.4,0,0.6-0.3,0.6-0.6v-2.2c0-1-0.9-1.9-1.9-1.9c-1,0-1.9,0.9-1.9,1.9v2.2
		C75,73,75.3,73.3,75.6,73.3L75.6,73.3z M76.2,70.5c0-0.3,0.3-0.6,0.6-0.6c0.3,0,0.6,0.3,0.6,0.6v1.5h-1.3V70.5z M76.2,70.5"/>
	<path fill="#125FC5" d="M64.6,70.9c0,0.1,0,0.1,0,0.2l0,7.2v0.2c0,0.1,0,0.3,0.1,0.4c0.1,0.1,0.1,0.1,0.1,0.2c0,0,0,0,0,0
		c0.4,0.4,0.8,0.7,1.3,0.8c0.2,0,0.3,0,0.4,0c0.8,0,1.4-0.5,1.6-1.3c0-0.2,0.1-0.4,0.1-0.6l0-1.3c0-1.8,0-2.6,0-4.9
		c0-0.4-0.1-0.8-0.2-1.1c0,0,0-0.1-0.1-0.1c-0.2-0.5-0.7-0.8-1.3-0.9c-0.6-0.1-1.1,0.1-1.6,0.6C64.7,70.6,64.6,70.9,64.6,70.9
		L64.6,70.9z M66.4,71.1c0.3,0,0.3,0.1,0.3,0.2c0,0,0,0,0,0.1c0.1,0.2,0.1,0.4,0.1,0.6c0,2.3,0,3.2,0,4.9l0,1.3c0,0.1,0,0.2,0,0.3
		c0,0.2-0.1,0.4-0.5,0.3c-0.2,0-0.4-0.1-0.6-0.3l0-7.1C66.1,71.1,66.3,71,66.4,71.1L66.4,71.1z M66.4,71.1"/>
	<path fill="#125FC5" d="M68.3,54.9c0.2,0,0.5,0,0.7-0.1c0.7-0.1,1.4-0.5,2-1v0.2c0,0.2,0.1,0.3,0.2,0.5c0.1,0.1,0.3,0.2,0.5,0.2
		h2.9c0.4,0,0.6-0.3,0.6-0.6l0-15.7c0-0.2-0.1-0.3-0.2-0.5c-0.1-0.1-0.3-0.2-0.5-0.2h-2.9c-0.4,0-0.6,0.3-0.6,0.6v10.8
		c-0.1,0.1-1,1-1.1,0.7c0-0.1,0-0.2,0-0.4V38.3c0-0.4-0.3-0.6-0.6-0.6h-2.9c-0.4,0-0.6,0.3-0.6,0.6v13.5c0,0.4,0.1,0.9,0.2,1.4
		C66.2,54.3,67.1,54.9,68.3,54.9L68.3,54.9z M67,39h1.6v10.4c0,0.2,0,0.4,0.1,0.6c0.1,0.4,0.3,0.8,0.6,1c0.3,0.2,0.7,0.2,1.1,0.1
		c0.6-0.2,1.2-0.6,1.7-1.3c0.2-0.2,0.2-0.5,0.2-0.7V39h1.6l0,14.5h-1.6l0-1.1c0-0.3-0.2-0.5-0.4-0.6c-0.2-0.1-0.5,0-0.7,0.1
		c-0.1,0.1-0.2,0.2-0.3,0.3c-0.2,0.2-0.4,0.4-0.6,0.6c-0.5,0.4-1,0.7-1.6,0.8c-1.3,0.3-1.6-0.6-1.6-0.8c-0.1-0.3-0.2-0.7-0.2-1V39z
		 M67,39"/>
	<path fill="#125FC5" d="M48.2,45.2c0,0.1,0,0.2,0,0.2l0,8.6c0,0.2,0.1,0.3,0.2,0.5c0.1,0.1,0.3,0.2,0.5,0.2h3.1
		c0.2,0,0.3-0.1,0.5-0.2c0.1-0.1,0.2-0.3,0.2-0.5l0-8.6c0-0.1,0-0.2,0-0.2c1.1-3.8,3.7-12.2,3.7-12.2c0.1-0.2,0-0.4-0.1-0.6
		c-0.1-0.2-0.3-0.3-0.5-0.3h-3.3c-0.3,0-0.6,0.2-0.6,0.5c0,0-0.7,3-1.3,5.7c-0.6-2.7-1.3-5.7-1.3-5.7c-0.1-0.3-0.3-0.5-0.6-0.5h-3.3
		c-0.2,0-0.4,0.1-0.5,0.3c-0.1,0.2-0.2,0.4-0.1,0.6C44.5,32.9,47.1,41.4,48.2,45.2L48.2,45.2z M48,33.4c0.3,1.4,1.3,5.6,1.8,7.8
		c0.1,0.3,0.3,0.5,0.6,0.5c0.3,0,0.6-0.2,0.6-0.5c0.5-2.2,1.5-6.4,1.8-7.8h2c-0.7,2.2-2.5,8.4-3.4,11.4c-0.1,0.2-0.1,0.4-0.1,0.6
		l0,8h-1.8l0-8c0-0.2,0-0.4-0.1-0.6c-0.9-3.1-2.8-9.2-3.4-11.4H48z M48,33.4"/>
	<path fill="#125FC5" d="M59.7,52.3c1,0,1.8-0.8,1.8-1.8v-8.5c0-1-0.8-1.8-1.8-1.8s-1.8,0.8-1.8,1.8v8.5
		C57.8,51.4,58.7,52.3,59.7,52.3L59.7,52.3z M59.1,41.9c0-0.3,0.3-0.6,0.6-0.6c0.3,0,0.6,0.3,0.6,0.6v8.5c0,0.3-0.3,0.6-0.6,0.6
		c-0.3,0-0.6-0.3-0.6-0.6V41.9z M59.1,41.9"/>
	<path fill="#125FC5" d="M54.9,42.1v8.2c0,2.7,2.2,4.8,4.8,4.8c2.7,0,4.8-2.2,4.8-4.8v-8.2c0-2.7-2.2-4.8-4.8-4.8
		C57,37.3,54.9,39.4,54.9,42.1L54.9,42.1z M59.7,38.6c2,0,3.5,1.6,3.5,3.5v8.2c0,2-1.6,3.5-3.5,3.5c-2,0-3.5-1.6-3.5-3.5v-8.2
		C56.2,40.1,57.7,38.6,59.7,38.6L59.7,38.6z M59.7,38.6"/>
	<path fill="#125FC5" d="M35.4,48.6c0.4,0,0.6-0.3,0.6-0.6V33.6c0-0.4-0.3-0.6-0.6-0.6c-0.4,0-0.6,0.3-0.6,0.6V48
		C34.8,48.3,35.1,48.6,35.4,48.6L35.4,48.6z M35.4,48.6"/>
	<path fill="#125FC5" d="M35.4,54.5c0.4,0,0.6-0.3,0.6-0.6v-2.2c0-0.4-0.3-0.6-0.6-0.6c-0.4,0-0.6,0.3-0.6,0.6v2.2
		C34.8,54.2,35.1,54.5,35.4,54.5L35.4,54.5z M35.4,54.5"/>
	<path fill="#125FC5" d="M85.6,66.3c-0.4,0-0.6,0.3-0.6,0.6v2.8c0,0.4,0.3,0.6,0.6,0.6c0.4,0,0.6-0.3,0.6-0.6V67
		C86.2,66.6,85.9,66.3,85.6,66.3L85.6,66.3z M85.6,66.3"/>
</g>
</svg>
