<?xml version="1.0" encoding="utf-8"?>
<!-- Generator: Adobe Illustrator 17.1.0, SVG Export Plug-In . SVG Version: 6.00 Build 0)  -->
<!DOCTYPE svg PUBLIC "-//W3C//DTD SVG 1.1//EN" "http://www.w3.org/Graphics/SVG/1.1/DTD/svg11.dtd">
<svg version="1.1" id="Слой_1" xmlns="http://www.w3.org/2000/svg" xmlns:xlink="http://www.w3.org/1999/xlink" x="0px" y="0px"
	 viewBox="0 0 269 261.1" enable-background="new 0 0 269 261.1" xml:space="preserve">
<g>
	<path fill="#125FC5" d="M94.6,239.7v-44.8c0-0.4-0.2-0.6-0.3-0.7c-0.1-0.1-0.3-0.3-0.7-0.3c-0.6,0-1,0.4-1,1v44.8c0,0.5,0.4,1,1,1
		C94.2,240.7,94.6,240.3,94.6,239.7z"/>
	<path fill="#125FC5" d="M41.3,181L41.3,181c0.4,0,0.6-0.2,0.7-0.3c0.1-0.1,0.3-0.3,0.3-0.7v-29.9c0-0.6-0.4-1-1-1c-0.5,0-1,0.4-1,1
		V180C40.3,180.6,40.8,181,41.3,181z"/>
	<path fill="#125FC5" d="M78.7,223.8H26.4c-0.6,0-1,0.4-1,1c0,0.6,0.4,1,1,1h52.3c0.6,0,1-0.4,1-1C79.7,224.3,79.2,223.8,78.7,223.8
		z"/>
	<path fill="#125FC5" d="M78.7,238.7H26.4c-0.6,0-1,0.4-1,1s0.4,1,1,1h52.3c0.6,0,1-0.4,1-1S79.2,238.7,78.7,238.7z"/>
	<path fill="#125FC5" d="M94.6,180v-29.9c0-0.4-0.2-0.6-0.3-0.7c-0.1-0.1-0.3-0.3-0.7-0.3H63.7c-0.6,0-1,0.4-1,1V180
		c0,0.5,0.4,1,1,1s1-0.4,1-1v-6.5h27.9v6.5c0,0.5,0.4,1,1,1C94.2,181,94.6,180.6,94.6,180z M92.6,171.5H64.7v-20.4h27.9V171.5z"/>
	<path fill="#125FC5" d="M78.7,208.9H26.4c-0.6,0-1,0.4-1,1s0.4,1,1,1h52.3c0.6,0,1-0.4,1-1S79.2,208.9,78.7,208.9z"/>
	<path fill="#125FC5" d="M78.7,193.9H26.4c-0.6,0-1,0.4-1,1c0,0.6,0.4,1,1,1h52.3c0.6,0,1-0.4,1-1C79.7,194.4,79.2,193.9,78.7,193.9
		z"/>
	<path fill="#125FC5" d="M134.7,81.9c-6.7,0-12.2,5.5-12.2,12.2s5.5,12.2,12.2,12.2c6.7,0,12.2-5.5,12.2-12.2S141.4,81.9,134.7,81.9
		z M134.7,104.3c-5.6,0-10.2-4.6-10.2-10.2c0-5.6,4.6-10.2,10.2-10.2c5.6,0,10.2,4.6,10.2,10.2C144.9,99.8,140.3,104.3,134.7,104.3z
		"/>
	<path fill="#125FC5" d="M108.5,238.7c-0.5,0-1,0.4-1,1c0,0.5,0.4,1,1,1h44.8c0.6,0,1-0.4,1-1c0-0.6-0.4-1-1-1H108.5z"/>
	<path fill="#125FC5" d="M108.5,223.8c-0.5,0-1,0.4-1,1c0,0.5,0.4,1,1,1h30.7c0.6,0,1-0.4,1-1c0-0.6-0.4-1-1-1H108.5z"/>
	<path fill="#125FC5" d="M194.4,141.7c-27.3,0-49.5,22.2-49.5,49.5c0,27.3,22.2,49.5,49.5,49.5s49.5-22.2,49.5-49.5
		C243.9,163.9,221.7,141.7,194.4,141.7z M194.4,238.7c-26.2,0-47.5-21.3-47.5-47.5c0-26.2,21.3-47.5,47.5-47.5
		c26.2,0,47.5,21.3,47.5,47.5C241.9,217.4,220.6,238.7,194.4,238.7z"/>
	<path fill="#125FC5" d="M134.7,39.5l107.6,107.6c0.3,0.3,0.7,0.4,1.1,0.2c0.4-0.2,0.6-0.5,0.6-0.9V53.1c0-0.4-0.2-0.6-0.3-0.7
		s-0.3-0.3-0.7-0.3H172c-0.6,0-1,0.4-1,1c0,0.5,0.4,1,1,1h69.9V144L135.4,37.4c-0.2-0.2-0.5-0.3-0.7-0.3c-0.2,0-0.5,0-0.7,0.3
		L27.4,144V54.1h43.8c0.6,0,1-0.4,1-1V38.1c0-0.5-0.4-1-1-1h-6.5V24.2h27.9v12.9h-6.5c-0.6,0-1,0.4-1,1v14.9c0,0.5,0.4,1,1,1h11.2
		c0.5,0,1-0.4,1-1c0-0.6-0.4-1-1-1H87.1V39.1h6.5c0.5,0,1-0.4,1-1V23.2c0-0.6-0.4-1-1-1H63.7c-0.6,0-1,0.4-1,1v14.9c0,0.6,0.4,1,1,1
		h6.5v12.9H26.4c-0.3,0-0.5,0.1-0.7,0.3c-0.2,0.2-0.3,0.4-0.3,0.7l0,93.3c0,0.4,0.2,0.8,0.6,0.9c0.4,0.2,0.8,0.1,1.1-0.2L134.7,39.5
		z"/>
	<path fill="#125FC5" d="M206.6,202.4c0-6.7-5.5-12.2-12.2-12.2c-5.6,0-10.2-4.6-10.2-10.2s4.6-10.2,10.2-10.2
		c5.6,0,10.2,4.6,10.2,10.2c0,0.6,0.4,1,1,1c0.5,0,1-0.4,1-1c0-5.5-3.8-10.4-9.2-11.8l-2-0.5v-2.6c0-0.5-0.4-1-1-1c-0.6,0-1,0.4-1,1
		v2.6l-2,0.5c-5.4,1.4-9.2,6.2-9.2,11.8c0,6.7,5.5,12.2,12.2,12.2c5.6,0,10.2,4.6,10.2,10.2s-4.6,10.2-10.2,10.2
		c-5.6,0-10.2-4.6-10.2-10.2c0-0.6-0.4-1-1-1c-0.6,0-1,0.4-1,1c0,5.5,3.8,10.4,9.2,11.8l2,0.5v2.6c0,0.6,0.4,1,1,1c0.5,0,1-0.4,1-1
		v-2.6l2-0.5C202.8,212.8,206.6,207.9,206.6,202.4z"/>
	<path fill="#125FC5" d="M108.5,208.9c-0.5,0-1,0.4-1,1s0.4,1,1,1h24.3c0.6,0,1-0.4,1-1s-0.4-1-1-1H108.5z"/>
	<path fill="#125FC5" d="M146.9,150.1c0-0.6-0.4-1-1-1H116c-0.6,0-1,0.4-1,1V180c0,0.6,0.4,1,1,1c0.5,0,1-0.4,1-1v-28.9h28.9
		C146.4,151.1,146.9,150.7,146.9,150.1z"/>
	<path fill="#125FC5" d="M130.9,193.9h-22.4c-0.5,0-1,0.4-1,1c0,0.5,0.4,1,1,1h22.4c0.6,0,1-0.4,1-1
		C131.9,194.4,131.5,193.9,130.9,193.9z"/>
</g>
</svg>
