<?xml version="1.0" encoding="utf-8"?>
<!-- Generator: Adobe Illustrator 17.1.0, SVG Export Plug-In . SVG Version: 6.00 Build 0)  -->
<!DOCTYPE svg PUBLIC "-//W3C//DTD SVG 1.1//EN" "http://www.w3.org/Graphics/SVG/1.1/DTD/svg11.dtd">
<svg version="1.1" id="Слой_1" xmlns="http://www.w3.org/2000/svg" xmlns:xlink="http://www.w3.org/1999/xlink" x="0px" y="0px"
	 viewBox="0 0 222 216.7" enable-background="new 0 0 222 216.7" xml:space="preserve">
<g>
	<path fill="#125FC5" d="M173.9,155c-7.2,0-13,5.4-13,12s5.8,12,13,12s13-5.4,13-12S181.1,155,173.9,155z M173.9,177.4
		c-6,0-11-4.6-11-10.4c0-5.7,4.9-10.4,11-10.4c6,0,11,4.6,11,10.4C184.8,172.8,179.9,177.4,173.9,177.4z"/>
	<path fill="#125FC5" d="M69.1,184.7h88.6l0.5,0.4c4.4,3.4,10,5.2,15.7,5.2c13.8,0,25-10.4,25-23.2c0-5.3-1.9-10.3-5.5-14.5
		l-0.5-0.6V58c0-2-1.8-3.6-4-3.6h-29.9c-2.2,0-4,1.6-4,3.6v75.5c0,0.4,0.5,0.8,1,0.8h6c0.6,0,1-0.4,1-0.8c0-0.4-0.5-0.8-1-0.8h-5
		v-9.5h5c0.6,0,1-0.4,1-0.8c0-0.5-0.5-0.8-1-0.8h-5V112h11c0.6,0,1-0.4,1-0.8c0-0.4-0.5-0.8-1-0.8h-11v-9.5h5c0.6,0,1-0.4,1-0.8
		c0-0.4-0.5-0.8-1-0.8h-5v-9.5h5c0.6,0,1-0.4,1-0.8c0-0.4-0.5-0.8-1-0.8h-5v-9.5h5c0.6,0,1-0.4,1-0.8c0-0.4-0.5-0.8-1-0.8h-5v-9.5
		h11c0.6,0,1-0.4,1-0.8c0-0.4-0.5-0.8-1-0.8h-11V56h33.9v93.7l-3-1.9c-4.1-2.6-8.9-4-13.9-4c-13.8,0-25,10.4-25,23.2
		c0,4.6,1.4,9,4.2,12.8l2.2,3.1H67.1v-31.9H77v10.4c0,0.4,0.5,0.8,1,0.8c0.6,0,1-0.4,1-0.8v-10.4H89v4.8c0,0.4,0.5,0.8,1,0.8
		c0.6,0,1-0.4,1-0.8v-4.8h9.9v4.8c0,0.4,0.5,0.8,1,0.8s1-0.4,1-0.8v-4.8h9.9v4.8c0,0.4,0.5,0.8,1,0.8c0.6,0,1-0.4,1-0.8v-4.8h9.9
		v10.4c0,0.4,0.5,0.8,1,0.8c0.6,0,1-0.4,1-0.8v-10.4h9.9v4.8c0,0.4,0.5,0.8,1,0.8c0.6,0,1-0.4,1-0.8v-5.6c0-0.4-0.5-0.8-1-0.8H69.1
		c-2.4,0-4,1.5-4,3.6v28C65.1,183.2,66.7,184.7,69.1,184.7z M151,167.1c0-11.9,10.3-21.5,22.9-21.5c12.6,0,22.9,9.7,22.9,21.5
		c0,11.9-10.3,21.5-22.9,21.5C161.2,188.6,151,178.9,151,167.1z"/>
	<path fill="#125FC5" d="M174.9,44c0-0.4-0.5-0.8-1-0.8H55.1v-2c0-8.2-7.2-14.8-16-14.8c-8.8,0-16,6.6-16,14.8v134.2
		c0,8.2,7.2,14.8,16,14.8h15c0.6,0,1-0.4,1-0.8c0-0.4-0.5-0.8-1-0.8h-15c-7.7,0-13.9-5.9-13.9-13.2c0-7.3,6.3-13.2,13.9-13.2
		c7.7,0,13.9,5.9,13.9,13.2c0,0.4,0.5,0.8,1,0.8c0.6,0,1-0.4,1-0.8V44.8h118.8C174.4,44.8,174.9,44.5,174.9,44z M53.1,167.2
		l-3.2-2.7c-3-2.5-6.8-3.8-10.7-3.8c-3.9,0-7.8,1.4-10.7,3.8l-3.2,2.7v-126c0-7.3,6.3-13.2,13.9-13.2c7.7,0,13.9,5.9,13.9,13.2
		V167.2z"/>
	<path fill="#125FC5" d="M139,127.9c0-0.1,0-0.3-0.3-0.5c-0.4-0.4-1.1-0.4-1.5,0l-4.2,3.9l0-73.9l4.2,3.9c0.4,0.4,1.2,0.4,1.5,0
		c0.2-0.2,0.3-0.4,0.3-0.5c0-0.1,0-0.3-0.3-0.5l-6-5.6c-0.1-0.1-0.2-0.2-0.3-0.2c-0.3-0.1-0.6-0.1-0.9,0c-0.1,0.1-0.3,0.1-0.3,0.2
		l-6,5.6c-0.2,0.2-0.3,0.4-0.3,0.5c0,0.1,0,0.3,0.3,0.5c0.4,0.4,1.1,0.4,1.5,0l4.2-3.9v73.9l-4.2-3.9c-0.2-0.2-0.5-0.3-0.8-0.3
		s-0.6,0.1-0.8,0.3c-0.2,0.2-0.3,0.4-0.3,0.5c0,0.1,0,0.3,0.3,0.5l6,5.6c0.1,0.1,0.2,0.2,0.3,0.2c0.3,0.1,0.6,0.1,0.9,0
		c0.1-0.1,0.3-0.1,0.4-0.2l6-5.6C138.9,128.3,139,128,139,127.9z"/>
</g>
</svg>
