<?xml version="1.0" encoding="utf-8"?>
<!-- Generator: Adobe Illustrator 17.1.0, SVG Export Plug-In . SVG Version: 6.00 Build 0)  -->
<!DOCTYPE svg PUBLIC "-//W3C//DTD SVG 1.1//EN" "http://www.w3.org/Graphics/SVG/1.1/DTD/svg11.dtd">
<svg version="1.1" id="Слой_1" xmlns="http://www.w3.org/2000/svg" xmlns:xlink="http://www.w3.org/1999/xlink" x="0px" y="0px"
	 viewBox="0 0 222 216.7" enable-background="new 0 0 222 216.7" xml:space="preserve">
<g>
	<path fill="#125FC5" d="M137.9,156.7c0.6,0,1-0.4,1-0.8c0-0.4-0.5-0.8-1-0.8H96c-0.6,0-1,0.4-1,0.8c0,0.4,0.5,0.8,1,0.8H137.9z"/>
	<path fill="#125FC5" d="M197.8,128.7c0.6,0,1-0.4,1-0.8V60.8c0-6.6-5.8-12-13-12H81c-0.6,0-1,0.4-1,0.8s0.5,0.8,1,0.8h104.8
		c6,0,11,4.6,11,10.4v67.1C196.8,128.4,197.3,128.7,197.8,128.7z"/>
	<path fill="#125FC5" d="M126,139.9c0.6,0,1-0.4,1-0.8c0-0.4-0.5-0.8-1-0.8H96c-0.6,0-1,0.4-1,0.8c0,0.4,0.5,0.8,1,0.8H126z"/>
	<path fill="#125FC5" d="M149.9,39.3c0.6,0,1-0.4,1-0.8V27.2c0-0.4-0.5-0.8-1-0.8H24.2c-0.6,0-1,0.4-1,0.8v128.6c0,6.6,5.8,12,13,12
		s13-5.4,13-12V60.8c0-5.7,4.9-10.4,11-10.4s11,4.6,11,10.4v105.4H54.1c-0.6,0-1,0.4-1,0.8s0.5,0.8,1,0.8H71v21.5
		c0,0.4,0.5,0.8,1,0.8H126c0.6,0,1-0.4,1-0.8s-0.5-0.8-1-0.8H73.1V60.8c0-6.6-5.8-12-13-12s-13,5.4-13,12v95.1
		c0,5.7-4.9,10.4-11,10.4s-11-4.6-11-10.4V28.1h123.7v10.4C148.9,38.9,149.4,39.3,149.9,39.3z"/>
	<path fill="#125FC5" d="M155.9,139.9c0.6,0,1-0.4,1-0.8c0-0.4-0.5-0.8-1-0.8h-18c-0.6,0-1,0.4-1,0.8c0,0.4,0.5,0.8,1,0.8H155.9z"/>
	<g>
		<path fill="#125FC5" d="M155.9,190.3c0.3,0,0.6-0.1,0.8-0.3l1.5-1.4H139v-18.2l-1.8,1.7c-0.2,0.2-0.3,0.3-0.3,0.5v16.8
			c0,0.4,0.5,0.8,1,0.8H155.9z"/>
		<path fill="#125FC5" d="M195.9,153.3c1.9-1.8,3-3.9,3-6.1c0-2.2-1-4.3-3-6.1l-6-5.6c-1.9-1.7-4.3-2.7-6.8-2.7
			c-2.5,0-4.9,1-6.8,2.7l-36.8,34.4l19.3,18L195.9,153.3z M178,136.6c1.5-1.4,3.3-2.2,5.2-2.2s3.7,0.8,5.2,2.2l6,5.6
			c1.6,1.5,2.4,3.2,2.4,5.1c0,1.8-0.8,3.6-2.4,5.1l-5.2,4.9l-16.6-15.5L178,136.6z M142.3,169.9l28.9-27l7.6,7.1l-28.9,27
			L142.3,169.9z M151.3,178.2l28.9-27l7.6,7.1l-28.9,27L151.3,178.2z"/>
	</g>
	<path fill="#125FC5" d="M161.9,123.1c0.6,0,1-0.4,1-0.8V93.8l4.2,3.9c0.4,0.4,1.1,0.4,1.5,0c0.2-0.2,0.3-0.4,0.3-0.5
		c0-0.1,0-0.3-0.3-0.5l-32.9-30.8c-0.4-0.4-1.1-0.4-1.5,0l-32.9,30.8c-0.2,0.2-0.3,0.4-0.3,0.5c0,0.1,0,0.3,0.3,0.5
		c0.4,0.4,1.1,0.4,1.5,0l4.2-3.9v28.5c0,0.4,0.5,0.8,1,0.8h21c0.6,0,1-0.4,1-0.8v-15.9h9.9v15.9c0,0.4,0.5,0.8,1,0.8H161.9z
		 M129,104.7c-0.6,0-1,0.4-1,0.8v15.9H109V91.9L135,67.6l25.9,24.2v29.6H142v-15.9c0-0.4-0.5-0.8-1-0.8H129z"/>
</g>
</svg>
