<?xml version="1.0" encoding="utf-8"?>
<!-- Generator: Adobe Illustrator 17.1.0, SVG Export Plug-In . SVG Version: 6.00 Build 0)  -->
<!DOCTYPE svg PUBLIC "-//W3C//DTD SVG 1.1//EN" "http://www.w3.org/Graphics/SVG/1.1/DTD/svg11.dtd">
<svg version="1.1" id="Слой_1" xmlns="http://www.w3.org/2000/svg" xmlns:xlink="http://www.w3.org/1999/xlink" x="0px" y="0px"
	 viewBox="0 0 222 216.7" enable-background="new 0 0 222 216.7" xml:space="preserve">
<g>
	<path fill="#125FC5" d="M143.2,146l0.8-0.3l0.8,0.3c5.2,2.3,7.9,2.3,8.2,2.3c0.5,0,1-0.4,1-0.8c0-0.4-0.5-0.8-1-0.8
		c0,0-2.9-0.1-8.5-2.7c-0.3-0.1-0.7-0.1-1,0c-2.9,1.3-5,2-6.4,2.4l0,0.3h-2c-0.6,0-1,0.4-1,0.8s0.5,0.8,1,0.8
		C135.2,148.3,137.9,148.2,143.2,146z"/>
	<path fill="#125FC5" d="M186.6,61.3c0.1-0.1,0.1-0.2,0.2-0.3c0.1-0.2,0.1-0.4,0-0.6c0-0.1-0.1-0.2-0.2-0.3l-6-5.6
		c-0.4-0.4-1.1-0.4-1.5,0c-0.2,0.2-0.3,0.4-0.3,0.5c0,0.1,0,0.3,0.3,0.5l4.5,4.2H72.1c-0.6,0-1,0.4-1,0.8V176l-4.2-3.9
		c-0.2-0.2-0.5-0.3-0.8-0.3s-0.6,0.1-0.8,0.3c-0.2,0.2-0.3,0.4-0.3,0.5c0,0.1,0,0.3,0.3,0.5l6,5.6c0.1,0.1,0.2,0.2,0.3,0.2
		c0.3,0.1,0.6,0.1,0.9,0c0.1,0,0.2-0.1,0.3-0.2l6-5.6c0.2-0.2,0.3-0.4,0.3-0.5c0-0.1,0-0.3-0.3-0.5c-0.4-0.4-1.2-0.4-1.6,0l-4.2,3.9
		V61.6h110.5l-4.5,4.2c-0.2,0.2-0.3,0.4-0.3,0.5c0,0.1,0,0.3,0.3,0.5c0.4,0.4,1.1,0.4,1.5,0L186.6,61.3z"/>
	<path fill="#125FC5" d="M133,130.7v-2h2c0.6,0,1-0.4,1-0.8s-0.5-0.8-1-0.8h-6c-0.6,0-1,0.4-1,0.8s0.5,0.8,1,0.8h2v2
		c0,0.4,0.5,0.8,1,0.8C132.5,131.5,133,131.2,133,130.7z"/>
	<path fill="#125FC5" d="M146.9,156.7c0.6,0,1-0.4,1-0.8c0-0.4-0.5-0.8-1-0.8h-6c-0.6,0-1,0.4-1,0.8c0,0.4,0.5,0.8,1,0.8H146.9z"/>
	<path fill="#125FC5" d="M159.9,127.9c0-0.4-0.5-0.8-1-0.8h-6c-0.6,0-1,0.4-1,0.8s0.5,0.8,1,0.8h2v2c0,0.4,0.5,0.8,1,0.8
		c0.6,0,1-0.4,1-0.8v-2h2C159.5,128.7,159.9,128.4,159.9,127.9z"/>
	<path fill="#125FC5" d="M174.9,189.4v-12.2l2.3,0.4c17.3,3.3,19.5,11.8,19.6,11.8c0.1,0.5,0.7,0.8,1.3,0.7c0.4-0.1,0.6-0.3,0.7-0.4
		c0.1-0.2,0.1-0.3,0.1-0.5c0-0.1-3.6-14.6-36.9-14.6c-0.6,0-1,0.4-1,0.8c0,0.5-0.2,13-16.9,13c-13.2,0-16.9-8.3-16.9-13.1
		c0-0.5-0.5-0.9-1-0.9c-33.4,0-36.9,14.5-36.9,14.7c0,0.2,0,0.3,0.1,0.5c0.1,0.2,0.4,0.4,0.7,0.4c0.6,0.1,1.1-0.2,1.3-0.7
		c0.1-0.3,2.4-8.7,19.6-12l2.3-0.4v12.3c0,0.4,0.5,0.8,1,0.8c0.6,0,1-0.4,1-0.8v-12.5l1.8-0.2c2.3-0.2,4.4-0.4,6.4-0.4l1.6,0
		l0.3,1.6c0.6,2.9,3.7,12.4,18.7,12.4c15,0,18.1-9.4,18.7-12.3l0.3-1.6l1.6,0c2.1,0.1,4.1,0.2,6.4,0.4l1.8,0.2v12.4
		c0,0.4,0.5,0.8,1,0.8C174.4,190.3,174.9,189.9,174.9,189.4z"/>
	<path fill="#125FC5" d="M197.8,173.5c0.6,0,1-0.4,1-0.8V55.2c0-3.2-1.3-6.2-3.8-8.4c-2.5-2.3-5.7-3.6-9.2-3.6H66.1
		c-0.6,0-1,0.4-1,0.8c0,0.4,0.5,0.8,1,0.8h119.8c5.9,0,11,4.7,11,10.4v117.5C196.8,173.1,197.3,173.5,197.8,173.5z"/>
	<path fill="#125FC5" d="M111.7,131.2l1.3,0.4l0.1,1.3c0.2,4,1.3,13.9,6,20.6l0.6,0.9c3.8,5.4,9.5,13.5,24.2,13.5
		c14.7,0,20.4-8.1,24.2-13.5l0.6-0.9c4.7-6.6,5.8-16.6,6-20.6l0.1-1.3l1.3-0.4c2.8-0.9,4.7-3.3,4.7-6.1v-7.6h5c0.6,0,1-0.4,1-0.8
		v-11.2c0-0.1,0-0.1,0-0.1c0-0.1-0.1-0.1-0.1-0.2c0-0.1-0.1-0.1-0.1-0.2c-0.1,0-0.1-0.1-0.2-0.1l-0.1-0.1c0,0,0,0,0,0
		c-0.1,0-0.1,0-0.2,0l-0.3-0.1c0,0-0.1,0-0.1,0h-1.3l-0.5-1.3c-3.3-8.6-9.9-18.9-31.5-22.8l-1.6-0.3v-2.8c0-0.4-0.5-0.8-1-0.8h-12
		c-0.6,0-1,0.4-1,0.8v2.8l-1.6,0.3c-17.2,2.8-27.5,13.7-31.4,22.9l-0.5,1.2H102c-0.5,0-1,0.3-1,0.8c0,0,0,0.1,0,0.1l0.1,0.4v10.8
		c0,0.4,0.5,0.8,1,0.8h4.8v7.6C107,127.8,108.9,130.3,111.7,131.2z M178.8,125.1c0,2.6-2.2,4.8-5,4.8c-0.6,0-1,0.4-1,0.8
		c0,0.1-0.1,13.9-5.9,22l-0.7,0.9c-3.5,5-8.9,12.6-22.4,12.6c-13.5,0-18.9-7.6-22.4-12.6l-0.7-0.9c-5.8-8.1-5.8-21.8-5.8-22
		c0-0.4-0.5-0.8-1-0.8c-2.7,0-5-2.1-5-4.8v-7.6h69.8V125.1z M103.2,115.9v-9.5H117c0.6,0,1-0.4,1-0.8c0-0.4-0.5-0.8-1-0.8h-11.7
		l1.5-2.9c2.5-4.7,10.1-16.1,27.7-19.4l2.3-0.4v9.6c0,0.4,0.5,0.8,1,0.8c0.6,0,1-0.4,1-0.8V78.4h9.9v13.2c0,0.4,0.5,0.8,1,0.8
		c0.6,0,1-0.4,1-0.8v-9.5l2.3,0.5c14.4,2.8,23.2,9,27.9,19.4l1.3,2.8h-11.6c-0.6,0-1,0.4-1,0.8c0,0.4,0.5,0.8,1,0.8h13.9v9.5H103.2z
		"/>
	<path fill="#125FC5" d="M39.1,26.4c-8.8,0-16,6.6-16,14.8v134.2c0,8.2,7.2,14.8,16,14.8h38.9c0.6,0,1-0.4,1-0.8
		c0-0.2-0.1-0.4-0.2-0.5c-0.2-0.2-0.5-0.3-0.8-0.3H39.1c-7.7,0-13.9-5.9-13.9-13.2c0-7.3,6.3-13.2,13.9-13.2
		c7.7,0,13.9,5.9,13.9,13.2c0,0.4,0.5,0.8,1,0.8c0.6,0,1-0.4,1-0.8V41.2c0-3.9-1.6-7.6-4.6-10.4C47.5,28,43.4,26.4,39.1,26.4z
		 M53.1,167.2l-3.2-2.7c-3-2.5-6.8-3.8-10.7-3.8c-3.9,0-7.8,1.4-10.7,3.8l-3.2,2.7v-126c0-7.3,6.3-13.2,13.9-13.2
		c7.7,0,13.9,5.9,13.9,13.2V167.2z"/>
</g>
</svg>
